# xmcd
#
# Track frame offsets: 
#        150
#        15209
#        31224
#        47047
#        65665
#        77665
#        92387
#        116128
#        130990
#        148969
#        163569
#        177191
#        188593
#        203543
#        216452
#        228947
#        240797
#        260102
#        275521
#        287663
#
# Disc length: 4051 seconds
#
# Revision: 1
# Processed by: cddbd v1.5.2PL0 Copyright (c) Steve Scherf et al.
# Submitted via: ExactAudioCopy v0.99pb4
#
DISCID=150fd114
DTITLE=Various Artist - Grandi Italiani
DYEAR=2005
DGENRE=Disco
TTITLE0=Ricchi e Poveri - Cosa sei (Que Sere)
TTITLE1=Pupo - Cosa farai
TTITLE2=Al Bano and Romina Power - Ci sarA
TTITLE3=Toto Cutugno - Solo noi
TTITLE4=Ennio Morricone - Metello
TTITLE5=Raffaella Carra - Pensami
TTITLE6=Lucio Dalla - Caruso
TTITLE7=Collage - Donna Musica
TTITLE8=Amedeo Minghi - Emanuela E Io
TTITLE9=Fausto Papetti - Woman in love
TTITLE10=Nini Rosso - La bellata della tromba
TTITLE11=Gianni Morandi - Go-kart twist
TTITLE12=El Pasador - Amanda Mia, Amore Mio
TTITLE13=Neil Sedaka - La Notte p fatta per amare
TTITLE14=Jimmy Fontana  - Il Mondo
TTITLE15=Henry Mancini - Love theme from "Romeo and Juliet"
TTITLE16=Gazebo - I like Chopin
TTITLE17=Drupi - Bella bellissima
TTITLE18=Riccardo Fogli - Noi due nel mondo e nell anima
TTITLE19=Ricchi e Poveri - Non dire no
EXTD=
EXTT0=
EXTT1=
EXTT2=
EXTT3=
EXTT4=
EXTT5=
EXTT6=
EXTT7=
EXTT8=
EXTT9=
EXTT10=
EXTT11=
EXTT12=
EXTT13=
EXTT14=
EXTT15=
EXTT16=
EXTT17=
EXTT18=
EXTT19=
PLAYORDER=
